<svg width="158" height="52" viewBox="0 0 158 52" fill="none" xmlns="http://www.w3.org/2000/svg">
<path d="M34.4375 15.9062C34.4375 16.9688 34.25 18.0521 33.875 19.1562C33.5 20.2396 32.9583 21.2292 32.25 22.125C31.5625 23 30.7188 23.7188 29.7188 24.2812C28.7188 24.8438 27.5833 25.125 26.3125 25.125C25.1875 25.125 24.2188 24.9375 23.4062 24.5625C22.6146 24.1667 21.9583 23.6458 21.4375 23C20.9375 22.3542 20.5625 21.625 20.3125 20.8125C20.0625 20 19.9375 19.1562 19.9375 18.2812C19.9375 17.4062 20.0417 16.5625 20.25 15.75C20.4792 14.9167 20.8229 14.1771 21.2812 13.5312C21.4062 13.9688 21.5729 14.3125 21.7812 14.5625C21.9896 14.7917 22.2083 14.9583 22.4375 15.0625C22.6875 15.1875 22.9583 15.2604 23.25 15.2812C23.9167 15.2812 24.3854 15.1042 24.6562 14.75C24.9479 14.3958 25.0938 13.9896 25.0938 13.5312C25.0938 13.3229 25.0521 13.1146 24.9688 12.9062C24.8854 12.6771 24.75 12.4688 24.5625 12.2812C24.3958 12.0938 24.1667 11.9375 23.875 11.8125C23.5833 11.6875 23.2292 11.625 22.8125 11.625C22.5833 11.625 22.25 11.6562 21.8125 11.7188C21.3958 11.7812 20.9271 11.9479 20.4062 12.2188C19.8854 12.4688 19.3542 12.8542 18.8125 13.375C18.2708 13.8958 17.7708 14.6042 17.3125 15.5C16.875 16.3958 16.5104 17.5104 16.2188 18.8438C15.9479 20.1771 15.8125 21.8021 15.8125 23.7188C15.8125 25.0312 15.9375 26.1771 16.1875 27.1562C16.4583 28.1146 16.8021 28.9375 17.2188 29.625C17.6354 30.3125 18.1146 30.875 18.6562 31.3125C19.1979 31.75 19.75 32.0938 20.3125 32.3438C20.875 32.5938 21.4167 32.7708 21.9375 32.875C22.4792 32.9583 22.9583 33 23.375 33C23.9167 33 24.5938 32.9062 25.4062 32.7188C26.2396 32.5104 27.0625 32.1458 27.875 31.625C28.6875 31.1042 29.4167 30.3854 30.0625 29.4688C30.7292 28.5521 31.1875 27.3646 31.4375 25.9062C32.1667 26.9271 32.7188 28.1458 33.0938 29.5625C33.4896 30.9792 33.6875 32.4688 33.6875 34.0312C33.6875 36.1562 33.3021 38.2188 32.5312 40.2188C31.7812 42.1979 30.6979 43.9583 29.2812 45.5C27.8854 47.0417 26.1875 48.2708 24.1875 49.1875C22.1875 50.125 19.9583 50.5938 17.5 50.5938C15.6875 50.5938 14.0104 50.3021 12.4688 49.7188C10.9271 49.1562 9.52083 48.3646 8.25 47.3438C6.97917 46.3229 5.86458 45.125 4.90625 43.75C3.94792 42.3542 3.13542 40.8438 2.46875 39.2188C1.80208 37.5938 1.30208 35.8854 0.96875 34.0938C0.635417 32.2812 0.46875 30.4479 0.46875 28.5938C0.46875 26.5521 0.6875 24.5 1.125 22.4375C1.5625 20.3542 2.1875 18.3542 3 16.4375C3.83333 14.5208 4.83333 12.7292 6 11.0625C7.1875 9.375 8.53125 7.91667 10.0312 6.6875C11.5312 5.4375 13.1771 4.45833 14.9688 3.75C16.7604 3.02083 18.6667 2.65625 20.6875 2.65625C22.5208 2.65625 24.1354 2.875 25.5312 3.3125C26.9271 3.72917 28.125 4.30208 29.125 5.03125C30.1458 5.73958 31 6.55208 31.6875 7.46875C32.375 8.38542 32.9167 9.33333 33.3125 10.3125C33.7292 11.2917 34.0208 12.2708 34.1875 13.25C34.3542 14.2083 34.4375 15.0938 34.4375 15.9062ZM68.6562 50.2812C67.5312 50.1146 66.2812 49.9896 64.9062 49.9062C63.5312 49.8229 62.1562 49.7812 60.7812 49.7812C59.4688 49.7812 58.1979 49.8229 56.9688 49.9062C55.7604 49.9896 54.7083 50.0938 53.8125 50.2188C54.25 48.7188 54.5938 47.1667 54.8438 45.5625C55.1146 43.9583 55.3125 42.2917 55.4375 40.5625C55.5833 38.8125 55.6771 36.9896 55.7188 35.0938C55.7604 33.1979 55.7812 31.1979 55.7812 29.0938C55.7812 28.7812 55.7604 28.3646 55.7188 27.8438C55.6979 27.3229 55.6458 26.7604 55.5625 26.1562C55.4792 25.5521 55.3542 24.9479 55.1875 24.3438C55.0417 23.7188 54.8438 23.1562 54.5938 22.6562C54.3438 22.1562 54.0312 21.75 53.6562 21.4375C53.3021 21.125 52.8854 20.9688 52.4062 20.9688C52.0938 20.9688 51.7812 21.1354 51.4688 21.4688C51.1771 21.7812 50.875 22.2083 50.5625 22.75C50.25 23.2708 49.9479 23.8854 49.6562 24.5938C49.3646 25.2812 49.0833 26.0104 48.8125 26.7812C48.8542 28.9062 48.9271 31.0104 49.0312 33.0938C49.1562 35.1562 49.3125 37.1458 49.5 39.0625C49.7083 40.9583 49.9479 42.75 50.2188 44.4375C50.4896 46.1042 50.8125 47.5833 51.1875 48.875C50.8333 48.8542 50.4167 48.8229 49.9375 48.7812C49.5208 48.7604 49.0208 48.7396 48.4375 48.7188C47.875 48.6979 47.2292 48.6875 46.5 48.6875C45.1458 48.6875 43.5833 48.75 41.8125 48.875C40.0625 48.9792 38.1562 49.1875 36.0938 49.5C36.3854 48.9167 36.6458 48.1146 36.875 47.0938C37.1042 46.0521 37.3021 44.8854 37.4688 43.5938C37.6354 42.2812 37.7708 40.8958 37.875 39.4375C38 37.9583 38.0938 36.4792 38.1562 35C38.2396 33.5208 38.2917 32.0938 38.3125 30.7188C38.3542 29.3229 38.3854 28.0729 38.4062 26.9688C38.4271 25.8438 38.4375 24.8958 38.4375 24.125C38.4375 23.3542 38.4375 22.8542 38.4375 22.625C38.3958 19.1458 38.3021 15.9167 38.1562 12.9375C38.0938 11.6875 38.0208 10.4271 37.9375 9.15625C37.8542 7.88542 37.75 6.69792 37.625 5.59375C37.5 4.48958 37.3542 3.52083 37.1875 2.6875C37.0417 1.85417 36.8646 1.22917 36.6562 0.8125C38.3438 1.10417 39.9062 1.30208 41.3438 1.40625C42.7812 1.51042 44.0729 1.5625 45.2188 1.5625C45.9688 1.5625 46.6458 1.55208 47.25 1.53125C47.8542 1.48958 48.3646 1.44792 48.7812 1.40625C49.2812 1.36458 49.7188 1.3125 50.0938 1.25C49.9271 1.97917 49.7812 2.85417 49.6562 3.875C49.5312 4.89583 49.4167 6.04167 49.3125 7.3125C49.2083 8.58333 49.1146 9.94792 49.0312 11.4062C48.9688 12.8646 48.9167 14.3854 48.875 15.9688C50.0625 14.1146 51.3438 12.8125 52.7188 12.0625C54.0938 11.2917 55.5208 10.9062 57 10.9062C58.4792 10.9062 59.8333 11.2396 61.0625 11.9062C62.3125 12.5521 63.3854 13.5625 64.2812 14.9375C65.1979 16.2917 65.9062 18.0104 66.4062 20.0938C66.9271 22.1771 67.1875 24.6458 67.1875 27.5C67.1875 29.4583 67.1875 31.4896 67.1875 33.5938C67.2083 35.6771 67.2604 37.7292 67.3438 39.75C67.4271 41.75 67.5729 43.6562 67.7812 45.4688C67.9896 47.2812 68.2812 48.8854 68.6562 50.2812ZM98.0312 19.9375C98.0312 21.5 97.8021 23.0208 97.3438 24.5C96.9062 25.9792 96.125 27.2917 95 28.4375C93.875 29.5833 92.3542 30.5 90.4375 31.1875C88.5417 31.875 86.125 32.2188 83.1875 32.2188C83.2708 33.2396 83.4792 34.0938 83.8125 34.7812C84.1667 35.4688 84.5833 36.0208 85.0625 36.4375C85.5417 36.8542 86.0521 37.1667 86.5938 37.375C87.1354 37.5833 87.6354 37.7292 88.0938 37.8125C88.5521 37.8958 88.9375 37.9375 89.25 37.9375C89.5625 37.9375 89.7188 37.9375 89.7188 37.9375C91.0104 37.7917 92.1667 37.4583 93.1875 36.9375C93.625 36.7292 94.0521 36.4688 94.4688 36.1562C94.8854 35.8229 95.2604 35.4375 95.5938 35C95.9479 34.5417 96.2292 34.0312 96.4375 33.4688C96.6667 32.8854 96.8021 32.2188 96.8438 31.4688C97.3854 32.8229 97.7604 34.0938 97.9688 35.2812C98.1979 36.4479 98.3125 37.5417 98.3125 38.5625C98.3125 40.4375 97.9688 42.1667 97.2812 43.75C96.6146 45.3125 95.6875 46.6667 94.5 47.8125C93.3125 48.9583 91.8958 49.8438 90.25 50.4688C88.625 51.1146 86.8542 51.4375 84.9375 51.4375C83.0625 51.4375 81.25 51.1146 79.5 50.4688C77.7708 49.8229 76.2292 48.8021 74.875 47.4062C73.5417 45.9896 72.4688 44.1562 71.6562 41.9062C70.8646 39.6562 70.4688 36.9271 70.4688 33.7188C70.4688 30.2396 70.9688 27.1562 71.9688 24.4688C72.9688 21.7812 74.3125 19.5312 76 17.7188C77.6875 15.8854 79.6354 14.5 81.8438 13.5625C84.0729 12.6042 86.4062 12.125 88.8438 12.125C90.0521 12.125 91.2083 12.2604 92.3125 12.5312C93.4375 12.8021 94.4167 13.25 95.25 13.875C96.1042 14.5 96.7812 15.3125 97.2812 16.3125C97.7812 17.2917 98.0312 18.5 98.0312 19.9375ZM83.0625 27.0625C83.6458 27.0417 84.3229 26.9271 85.0938 26.7188C85.8646 26.4896 86.5938 26.1771 87.2812 25.7812C87.9688 25.3854 88.5417 24.8958 89 24.3125C89.4792 23.7292 89.7188 23.0625 89.7188 22.3125C89.7188 21.8333 89.5521 21.4479 89.2188 21.1562C88.8854 20.8646 88.4583 20.7188 87.9375 20.7188C87.2083 20.7188 86.5521 20.9271 85.9688 21.3438C85.4062 21.7604 84.9167 22.2812 84.5 22.9062C84.1042 23.5312 83.7812 24.2188 83.5312 24.9688C83.2812 25.7188 83.125 26.4167 83.0625 27.0625ZM126.562 20.5938C126.562 21.4271 126.396 22.1771 126.062 22.8438C125.729 23.5104 125.281 24.0833 124.719 24.5625C124.156 25.0208 123.5 25.3854 122.75 25.6562C122 25.9062 121.208 26.0312 120.375 26.0312C119.417 26.0312 118.594 25.9167 117.906 25.6875C117.24 25.4583 116.667 25.1667 116.188 24.8125C115.729 24.4375 115.365 24.0312 115.094 23.5938C114.823 23.1354 114.604 22.6979 114.438 22.2812C114.292 21.8646 114.198 21.4792 114.156 21.125C114.115 20.7708 114.094 20.5 114.094 20.3125C114.281 20.6667 114.521 20.8854 114.812 20.9688C115.104 21.0521 115.333 21.0938 115.5 21.0938C115.979 21.0938 116.323 20.9688 116.531 20.7188C116.74 20.4688 116.844 20.2083 116.844 19.9375C116.844 19.7708 116.802 19.5833 116.719 19.375C116.635 19.1667 116.49 18.9792 116.281 18.8125C116.073 18.625 115.802 18.4688 115.469 18.3438C115.135 18.2188 114.719 18.1562 114.219 18.1562C113.906 18.1562 113.573 18.2188 113.219 18.3438C112.865 18.4688 112.542 18.6667 112.25 18.9375C111.979 19.1875 111.75 19.5104 111.562 19.9062C111.375 20.2812 111.281 20.7188 111.281 21.2188C111.281 22.1562 111.521 22.9479 112 23.5938C112.479 24.2396 113.104 24.8125 113.875 25.3125C114.667 25.7917 115.552 26.2396 116.531 26.6562C117.531 27.0729 118.552 27.5104 119.594 27.9688C120.635 28.4062 121.646 28.9062 122.625 29.4688C123.625 30.0104 124.51 30.6771 125.281 31.4688C126.073 32.2604 126.708 33.2083 127.188 34.3125C127.667 35.4167 127.906 36.7292 127.906 38.25C127.906 40.1875 127.51 41.9375 126.719 43.5C125.927 45.0625 124.865 46.4062 123.531 47.5312C122.219 48.6354 120.688 49.4792 118.938 50.0625C117.188 50.6667 115.344 50.9688 113.406 50.9688C111.635 50.9688 109.958 50.7292 108.375 50.25C106.792 49.7708 105.406 49.1042 104.219 48.25C103.031 47.3958 102.083 46.3854 101.375 45.2188C100.688 44.0521 100.344 42.7917 100.344 41.4375C100.344 40.4167 100.51 39.5312 100.844 38.7812C101.177 38.0104 101.635 37.375 102.219 36.875C102.823 36.375 103.521 36 104.312 35.75C105.125 35.5 106 35.375 106.938 35.375C107.625 35.375 108.312 35.4479 109 35.5938C109.688 35.7396 110.333 35.9583 110.938 36.25C111.542 36.5417 112.083 36.8958 112.562 37.3125C113.042 37.7292 113.427 38.2083 113.719 38.75C113.552 38.7083 113.385 38.6771 113.219 38.6562C113.073 38.6354 112.917 38.625 112.75 38.625C112.292 38.625 111.927 38.75 111.656 39C111.406 39.2292 111.281 39.6146 111.281 40.1562C111.281 40.7396 111.521 41.2292 112 41.625C112.479 42.0208 113.01 42.2188 113.594 42.2188C113.927 42.2188 114.24 42.1458 114.531 42C114.823 41.8542 115.073 41.6667 115.281 41.4375C115.49 41.1875 115.646 40.9167 115.75 40.625C115.875 40.3333 115.938 40.0312 115.938 39.7188C115.938 39.1771 115.75 38.5938 115.375 37.9688C115.021 37.3438 114.51 36.8229 113.844 36.4062C112.531 35.5938 111.292 34.8958 110.125 34.3125C108.958 33.7292 107.885 33.1771 106.906 32.6562C105.927 32.1354 105.042 31.6146 104.25 31.0938C103.479 30.5729 102.823 29.9688 102.281 29.2812C101.74 28.5729 101.323 27.75 101.031 26.8125C100.74 25.8542 100.594 24.6979 100.594 23.3438C100.594 21.7396 100.906 20.2604 101.531 18.9062C102.177 17.5312 103.094 16.3438 104.281 15.3438C105.469 14.3438 106.927 13.5625 108.656 13C110.385 12.4167 112.344 12.125 114.531 12.125C116.76 12.125 118.635 12.3854 120.156 12.9062C121.698 13.4271 122.938 14.0938 123.875 14.9062C124.833 15.7188 125.521 16.625 125.938 17.625C126.354 18.625 126.562 19.6146 126.562 20.5938ZM155.75 20.5938C155.75 21.4271 155.583 22.1771 155.25 22.8438C154.917 23.5104 154.469 24.0833 153.906 24.5625C153.344 25.0208 152.688 25.3854 151.938 25.6562C151.188 25.9062 150.396 26.0312 149.562 26.0312C148.604 26.0312 147.781 25.9167 147.094 25.6875C146.427 25.4583 145.854 25.1667 145.375 24.8125C144.917 24.4375 144.552 24.0312 144.281 23.5938C144.01 23.1354 143.792 22.6979 143.625 22.2812C143.479 21.8646 143.385 21.4792 143.344 21.125C143.302 20.7708 143.281 20.5 143.281 20.3125C143.469 20.6667 143.708 20.8854 144 20.9688C144.292 21.0521 144.521 21.0938 144.688 21.0938C145.167 21.0938 145.51 20.9688 145.719 20.7188C145.927 20.4688 146.031 20.2083 146.031 19.9375C146.031 19.7708 145.99 19.5833 145.906 19.375C145.823 19.1667 145.677 18.9792 145.469 18.8125C145.26 18.625 144.99 18.4688 144.656 18.3438C144.323 18.2188 143.906 18.1562 143.406 18.1562C143.094 18.1562 142.76 18.2188 142.406 18.3438C142.052 18.4688 141.729 18.6667 141.438 18.9375C141.167 19.1875 140.938 19.5104 140.75 19.9062C140.562 20.2812 140.469 20.7188 140.469 21.2188C140.469 22.1562 140.708 22.9479 141.188 23.5938C141.667 24.2396 142.292 24.8125 143.062 25.3125C143.854 25.7917 144.74 26.2396 145.719 26.6562C146.719 27.0729 147.74 27.5104 148.781 27.9688C149.823 28.4062 150.833 28.9062 151.812 29.4688C152.812 30.0104 153.698 30.6771 154.469 31.4688C155.26 32.2604 155.896 33.2083 156.375 34.3125C156.854 35.4167 157.094 36.7292 157.094 38.25C157.094 40.1875 156.698 41.9375 155.906 43.5C155.115 45.0625 154.052 46.4062 152.719 47.5312C151.406 48.6354 149.875 49.4792 148.125 50.0625C146.375 50.6667 144.531 50.9688 142.594 50.9688C140.823 50.9688 139.146 50.7292 137.562 50.25C135.979 49.7708 134.594 49.1042 133.406 48.25C132.219 47.3958 131.271 46.3854 130.562 45.2188C129.875 44.0521 129.531 42.7917 129.531 41.4375C129.531 40.4167 129.698 39.5312 130.031 38.7812C130.365 38.0104 130.823 37.375 131.406 36.875C132.01 36.375 132.708 36 133.5 35.75C134.312 35.5 135.188 35.375 136.125 35.375C136.812 35.375 137.5 35.4479 138.188 35.5938C138.875 35.7396 139.521 35.9583 140.125 36.25C140.729 36.5417 141.271 36.8958 141.75 37.3125C142.229 37.7292 142.615 38.2083 142.906 38.75C142.74 38.7083 142.573 38.6771 142.406 38.6562C142.26 38.6354 142.104 38.625 141.938 38.625C141.479 38.625 141.115 38.75 140.844 39C140.594 39.2292 140.469 39.6146 140.469 40.1562C140.469 40.7396 140.708 41.2292 141.188 41.625C141.667 42.0208 142.198 42.2188 142.781 42.2188C143.115 42.2188 143.427 42.1458 143.719 42C144.01 41.8542 144.26 41.6667 144.469 41.4375C144.677 41.1875 144.833 40.9167 144.938 40.625C145.062 40.3333 145.125 40.0312 145.125 39.7188C145.125 39.1771 144.938 38.5938 144.562 37.9688C144.208 37.3438 143.698 36.8229 143.031 36.4062C141.719 35.5938 140.479 34.8958 139.312 34.3125C138.146 33.7292 137.073 33.1771 136.094 32.6562C135.115 32.1354 134.229 31.6146 133.438 31.0938C132.667 30.5729 132.01 29.9688 131.469 29.2812C130.927 28.5729 130.51 27.75 130.219 26.8125C129.927 25.8542 129.781 24.6979 129.781 23.3438C129.781 21.7396 130.094 20.2604 130.719 18.9062C131.365 17.5312 132.281 16.3438 133.469 15.3438C134.656 14.3438 136.115 13.5625 137.844 13C139.573 12.4167 141.531 12.125 143.719 12.125C145.948 12.125 147.823 12.3854 149.344 12.9062C150.885 13.4271 152.125 14.0938 153.062 14.9062C154.021 15.7188 154.708 16.625 155.125 17.625C155.542 18.625 155.75 19.6146 155.75 20.5938Z" fill="#F4E4E4"/>
</svg>
